<?xml version="1.0" encoding="UTF-8"?>
<svg xmlns="http://www.w3.org/2000/svg" xmlns:xlink="http://www.w3.org/1999/xlink" width="276" height="276" viewBox="0 0 276 276">
<path fill-rule="nonzero" fill="rgb(14.117647%, 51.764706%, 89.019608%)" fill-opacity="1" stroke-width="0.04" stroke-linecap="butt" stroke-linejoin="miter" stroke="rgb(100%, 100%, 100%)" stroke-opacity="1" stroke-miterlimit="10" d="M 0.99999 0 C 0.99999 0.265215 0.894641 0.519579 0.707096 0.707096 C 0.519579 0.894641 0.265215 0.99999 0 0.99999 C -0.265215 0.99999 -0.519579 0.894641 -0.707096 0.707096 C -0.894641 0.519579 -0.99999 0.265215 -0.99999 0 C -0.99999 -0.265215 -0.894641 -0.519579 -0.707096 -0.707096 C -0.519579 -0.894641 -0.265215 -0.99999 0 -0.99999 C 0.265215 -0.99999 0.519579 -0.894641 0.707096 -0.707096 C 0.894641 -0.519579 0.99999 -0.265215 0.99999 0 Z M 0.99999 0 " transform="matrix(134.634146, 0, 0, -134.634146, 138, 138)"/>
<path fill-rule="nonzero" fill="rgb(100%, 100%, 100%)" fill-opacity="1" d="M 174.515625 185.550781 C 174.785156 185.550781 174.988281 185.414062 175.054688 185.148438 C 177.757812 177.992188 180.464844 170.839844 183.167969 163.6875 C 183.234375 163.617188 183.234375 163.550781 183.234375 163.484375 C 183.234375 163.148438 182.96875 162.882812 182.632812 162.882812 C 182.074219 162.882812 181.515625 162.882812 180.957031 162.882812 C 180.6875 162.882812 180.484375 163.015625 180.417969 163.285156 C 179.277344 166.234375 177.265625 168.78125 174.785156 170.863281 C 171.632812 173.476562 167.609375 175.355469 163.382812 176.429688 C 163.316406 176.429688 163.25 176.496094 163.183594 176.496094 C 162.175781 176.765625 159.761719 177.300781 155.671875 177.835938 C 152.386719 178.171875 148.09375 178.507812 142.660156 178.507812 C 129.605469 178.507812 116.550781 178.507812 103.496094 178.507812 C 114.605469 165.496094 125.714844 152.484375 136.828125 139.476562 C 136.960938 139.273438 137.09375 139.140625 137.160156 139.007812 C 137.296875 138.804688 137.429688 138.605469 137.496094 138.402344 C 137.5625 138.269531 137.5625 138.132812 137.5625 138 C 137.5625 137.867188 137.496094 137.394531 136.960938 136.660156 C 126.789062 122.730469 116.617188 108.804688 106.445312 94.875 C 118.292969 94.875 130.140625 94.875 141.992188 94.875 C 146.953125 94.875 151.042969 95.144531 153.792969 95.414062 C 155 95.546875 155.941406 95.679688 156.609375 95.816406 C 157.148438 95.882812 157.484375 95.949219 157.550781 95.949219 C 157.550781 95.949219 157.550781 95.949219 157.617188 95.949219 C 159.5625 96.21875 162.246094 96.6875 165.128906 97.625 C 167.410156 98.363281 169.824219 99.4375 172.101562 100.914062 C 173.042969 101.449219 174.785156 102.65625 176.597656 104.46875 C 178.003906 105.941406 179.414062 107.820312 180.417969 110.101562 C 180.484375 110.367188 180.6875 110.503906 180.957031 110.503906 C 181.515625 110.503906 182.074219 110.503906 182.632812 110.503906 C 182.96875 110.503906 183.234375 110.234375 183.234375 109.898438 C 183.234375 109.832031 183.234375 109.765625 183.167969 109.632812 C 180.464844 103.347656 177.757812 97.066406 175.054688 90.785156 C 174.988281 90.585938 174.785156 90.449219 174.515625 90.449219 C 148.09375 90.449219 121.667969 90.449219 95.246094 90.449219 C 94.777344 90.449219 94.441406 90.449219 94.171875 90.449219 C 93.769531 90.515625 93.503906 90.585938 93.300781 90.71875 C 93.234375 90.785156 93.167969 90.851562 93.167969 90.851562 C 93.097656 90.921875 93.03125 90.988281 93.03125 91.054688 C 92.964844 91.121094 92.898438 91.1875 92.898438 91.253906 C 92.898438 91.253906 92.898438 91.324219 92.832031 91.324219 C 92.832031 91.390625 92.832031 91.457031 92.832031 91.523438 C 92.832031 91.589844 92.832031 91.65625 92.832031 91.726562 C 92.765625 91.859375 92.765625 92.058594 92.765625 92.261719 C 92.765625 92.730469 92.765625 93.335938 92.765625 93.738281 C 92.765625 93.871094 92.832031 94.003906 92.898438 94.070312 C 104.636719 110.144531 116.371094 126.21875 128.109375 142.292969 C 116.617188 155.726562 105.125 169.164062 93.636719 182.597656 C 92.898438 183.46875 92.832031 184.007812 92.832031 184.207031 C 92.832031 184.410156 92.832031 184.609375 92.964844 184.8125 C 93.03125 184.945312 93.167969 185.078125 93.234375 185.214844 C 93.367188 185.28125 93.433594 185.347656 93.570312 185.347656 C 93.769531 185.484375 93.972656 185.484375 94.238281 185.550781 C 94.507812 185.550781 94.84375 185.550781 95.113281 185.550781 C 121.582031 185.550781 148.046875 185.550781 174.515625 185.550781 Z M 174.515625 185.550781 "/>
</svg>
